<svg xmlns="http://www.w3.org/2000/svg" width="40" height="40" viewBox="0 0 40 40">
    <defs>
        <style>
            .cls-3{fill:#fff}
        </style>
    </defs>
    <g id="blog" transform="translate(-1384 -1235)">
        <rect id="사각형_2417" width="40" height="40" fill="#f4f4f4" rx="8" transform="translate(1384 1235)"/>
        <g id="그룹_4863" transform="translate(1392 1245)">
            <path id="패스_4818" fill="#1e005a" d="M142.237 191.9h-16.419a3.779 3.779 0 0 0-3.791 3.768v8.932a3.779 3.779 0 0 0 3.791 3.769h5.655l1.93 3.113a.707.707 0 0 0 .063.088.65.65 0 0 0 1.12 0 .445.445 0 0 0 .065-.093l1.93-3.113h5.656a3.78 3.78 0 0 0 3.79-3.769v-8.939a3.78 3.78 0 0 0-3.79-3.756z" transform="translate(-122.027 -191.895)"/>
            <g id="그룹_4862" transform="translate(2.607 4.654)">
                <g id="그룹_4859">
                    <path id="패스_4814" d="M148.068 237.064a1.947 1.947 0 0 0-1.247.577v-2.326h-1.467v6.11h1.482v-.479a1.406 1.406 0 0 0 1.231.631 2.161 2.161 0 0 0 2.067-2.28s-.075-2.233-2.066-2.233zm-.323 3.225a.943.943 0 1 1 .942-.943.943.943 0 0 1-.942.943z" class="cls-3" transform="translate(-145.355 -235.179)"/>
                    <path id="패스_4815" d="M192.353 234.093v1.414s.669-.03.669 1.216v3.617h1.414v-3.951s.064-2.296-2.083-2.296z" class="cls-3" transform="translate(-187.087 -234.093)"/>
                    <path id="패스_4816" d="M222.662 251.132s-2.423 0-2.423 2.263a2.19 2.19 0 0 0 2.423 2.232s2.479 0 2.479-2.232a2.227 2.227 0 0 0-2.479-2.263zm0 3.206a.942.942 0 1 1 .942-.943.943.943 0 0 1-.942.943z" class="cls-3" transform="translate(-211.844 -249.228)"/>
                    <path id="패스_4817" d="M274.048 251.277v.41a1.6 1.6 0 0 0-1.231-.558 2.023 2.023 0 0 0-2.075 2.247s-.023 2.175 2.018 2.175a1.677 1.677 0 0 0 1.288-.559v.342a.933.933 0 0 1-.935 1.071h-.353v1.3h.57a2.129 2.129 0 0 0 2.143-2.291v-4.138zm-.877 3.057a.942.942 0 1 1 .942-.943.942.942 0 0 1-.941.943z" class="cls-3" transform="translate(-256.687 -249.225)"/>
                </g>
            </g>
        </g>
    </g>
</svg>
