<svg xmlns="http://www.w3.org/2000/svg" width="21" height="22" viewBox="0 0 21 22">
    <g>
        <path fill="none" d="M0 0H21V22H0z" transform="translate(-1848 -29) translate(1848 29)"/>
        <g>
            <g>
                <path stroke="#000" stroke-width="0.5px" d="M31.437 12.969a3.575 3.575 0 0 0-2.864 1.431l-5.592-2.82a3.472 3.472 0 0 0-.116-2.31l5.861-3.475A3.571 3.571 0 0 0 35 3.516a3.563 3.563 0 0 0-7.125 0 3.457 3.457 0 0 0 .241 1.271L22.241 8.27a3.541 3.541 0 1 0-2.678 5.83 3.575 3.575 0 0 0 2.9-1.471l5.576 2.812a3.462 3.462 0 0 0-.16 1.042 3.563 3.563 0 1 0 3.562-3.516zm0-11.8a2.362 2.362 0 0 1 2.375 2.344 2.375 2.375 0 0 1-4.75 0 2.362 2.362 0 0 1 2.375-2.341zM19.563 12.93a2.344 2.344 0 1 1 2.375-2.344 2.362 2.362 0 0 1-2.375 2.344zm11.875 5.9a2.344 2.344 0 1 1 2.375-2.344 2.362 2.362 0 0 1-2.376 2.342z" transform="translate(-1848 -29) translate(1833 30) translate(16) translate(-16)"/>
            </g>
        </g>
    </g>
</svg>
