<svg xmlns="http://www.w3.org/2000/svg" width="82" height="16" viewBox="0 0 82 16">
    <defs>
        <clipPath id="clip-path">
            <path id="사각형_2917" fill="none" d="M0 0H82V16H0z"/>
        </clipPath>
        <style>
            .cls-3{fill:#b5b5b5}.cls-4{fill:#959595}
        </style>
    </defs>
    <g id="icon_top_logo" transform="translate(45.5 9)">
        <g id="그룹_7800" clip-path="url(#clip-path)" transform="translate(-45.5 -9)">
            <path id="패스_9613" d="M13.034 5.281a7.965 7.965 0 0 0-2.293-1.868 6.038 6.038 0 0 0-2.907-.693 5.594 5.594 0 0 0-2.014.374 4.559 4.559 0 0 0-1.565.96 4.465 4.465 0 0 0-1.007 1.494 5.109 5.109 0 0 0 0 3.789 4.492 4.492 0 0 0 2.684 2.508 6.179 6.179 0 0 0 2.125.374 5.749 5.749 0 0 0 2.74-.64A7.218 7.218 0 0 0 13.09 9.6l2.46 1.548a11.872 11.872 0 0 1-1.566 1.708 8.156 8.156 0 0 1-1.678 1.174 7.37 7.37 0 0 1-1.9.694 10.471 10.471 0 0 1-2.181.213 9.575 9.575 0 0 1-2.964-.427 9.42 9.42 0 0 1-2.628-1.388 6.067 6.067 0 0 1-1.9-2.4 7.974 7.974 0 0 1-.225-6.081 6.6 6.6 0 0 1 1.566-2.295A7.906 7.906 0 0 1 4.758.585 9.093 9.093 0 0 1 8.113 0a8.767 8.767 0 0 1 4.306 1.014 9.728 9.728 0 0 1 3.243 3.149z" class="cls-3" transform="translate(.242 .004)"/>
            <path id="패스_9614" d="M85.116 1.18a6.4 6.4 0 0 1 2.293 1.494 6.462 6.462 0 0 1 1.454 2.295 8.543 8.543 0 0 1 .5 2.989 6.828 6.828 0 0 1-2.181 5.177 6.353 6.353 0 0 1-2.125 1.334 6.991 6.991 0 0 1-2.572.48H74.1V.7h8a8.1 8.1 0 0 1 2.964.534m-.951 10.513a4.158 4.158 0 0 0 1.4-1.334 4.435 4.435 0 0 0 .727-2.455 5.368 5.368 0 0 0-.28-1.814 4.429 4.429 0 0 0-.844-1.444 3.716 3.716 0 0 0-1.23-.961 3.784 3.784 0 0 0-1.622-.32h-5.256v8.806h5.312a3.534 3.534 0 0 0 1.789-.48" class="cls-3" transform="translate(-32.418 -.324)"/>
            <path id="패스_9615" d="M55.6 2.541V.3a7.26 7.26 0 0 1 6.431 7.2v.32c-.168 4.483-3.243 6.617-6.431 7.2v-2.179a5.307 5.307 0 0 0 3.523-5.23 5.1 5.1 0 0 0-3.523-5.07" class="cls-4" transform="translate(-24.263 -.138)"/>
            <path id="패스_9616" d="M40.631 2.541V.3A7.26 7.26 0 0 0 34.2 7.5v.32c.168 4.483 3.243 6.617 6.431 7.2v-2.179a5.307 5.307 0 0 1-3.523-5.23 5.1 5.1 0 0 1 3.523-5.07" class="cls-4" transform="translate(-14.829 -.138)"/>
            <path id="사각형_2914" d="M0 0H2.796V14.388H0z" class="cls-3" transform="translate(60.918 .375)"/>
            <path id="사각형_2915" d="M0 0H2.796V13.667H0z" class="cls-3" transform="translate(73.947 1.123)"/>
            <path id="사각형_2916" d="M0 0H12.023V2.679H0z" class="cls-3" transform="translate(69.306 .375)"/>
        </g>
    </g>
</svg>
