<svg xmlns="http://www.w3.org/2000/svg" width="15.768" height="12" viewBox="0 0 15.768 12">
    <g>
        <g>
            <path d="M13.843 57.75H1.928A1.93 1.93 0 0 0 0 59.678v8.144a1.93 1.93 0 0 0 1.928 1.928H13.84a1.93 1.93 0 0 0 1.928-1.928v-8.14a1.928 1.928 0 0 0-1.925-1.932zm1.047 10.072a1.048 1.048 0 0 1-1.047 1.047H1.928a1.048 1.048 0 0 1-1.047-1.047v-8.14a1.048 1.048 0 0 1 1.047-1.047H13.84a1.048 1.048 0 0 1 1.047 1.047v8.14z" transform="translate(0 -57.75) translate(0 57.75) translate(0 -57.75)"/>
            <path d="M62.605 112.282l3.253-2.763a.341.341 0 0 0 .028-.5.388.388 0 0 0-.526-.026l-4.485 3.813-.875-.74s-.006-.005-.006-.008a.543.543 0 0 0-.061-.05l-3.561-3.018a.386.386 0 0 0-.526.029.339.339 0 0 0 .03.5l3.291 2.786-3.277 2.906a.34.34 0 0 0-.017.5.39.39 0 0 0 .272.112.384.384 0 0 0 .253-.094l3.327-2.948.9.764a.386.386 0 0 0 .5 0l.927-.787 3.308 2.977a.387.387 0 0 0 .526-.013.34.34 0 0 0-.014-.5z" transform="translate(0 -57.75) translate(0 57.75) translate(-52.982 -106.361)"/>
        </g>
    </g>
</svg>
