<svg xmlns="http://www.w3.org/2000/svg" width="80" height="16" viewBox="0 0 80 16">
    <defs>
        <style>
            .cls-1{fill:#30d8a1}
        </style>
    </defs>
    <g id="logo_footer" transform="translate(-77.227 -289.002)">
        <path id="패스_6124" d="M90.852 294.666a8.353 8.353 0 0 0-2.395-1.995 6.17 6.17 0 0 0-3.028-.743 5.714 5.714 0 0 0-2.119.376 4.724 4.724 0 0 0-1.63 1.055 4.8 4.8 0 0 0-1.055 1.608 5.624 5.624 0 0 0 .009 4.072 4.719 4.719 0 0 0 2.8 2.662 6.362 6.362 0 0 0 2.239.376 5.884 5.884 0 0 0 2.849-.689 7.6 7.6 0 0 0 2.368-2.13l2.557 1.671a12.555 12.555 0 0 1-1.6 1.838 8.533 8.533 0 0 1-1.767 1.273 7.627 7.627 0 0 1-1.991.731 10.705 10.705 0 0 1-2.274.229 9.237 9.237 0 0 1-5.836-1.942 6.506 6.506 0 0 1-2-2.548 8.742 8.742 0 0 1-.2-6.558 7.047 7.047 0 0 1 1.614-2.465 8.263 8.263 0 0 1 2.8-1.837 9.274 9.274 0 0 1 3.478-.65 8.96 8.96 0 0 1 4.47 1.1 10.271 10.271 0 0 1 3.457 3.371z"/>
        <path id="패스_6125" d="M162.832 290.213a6.672 6.672 0 0 1 2.368 1.587 6.948 6.948 0 0 1 1.5 2.468 9.352 9.352 0 0 1 .526 3.2 7.375 7.375 0 0 1-2.213 5.528 6.628 6.628 0 0 1-2.2 1.435 7.155 7.155 0 0 1-2.687.506h-8.751v-15.283h8.338a8.3 8.3 0 0 1 3.119.559zm-1.038 11.276a4.378 4.378 0 0 0 1.484-1.442 4.821 4.821 0 0 0 .772-2.649 5.856 5.856 0 0 0-.309-1.929 4.749 4.749 0 0 0-.858-1.537 3.835 3.835 0 0 0-2.985-1.367h-5.507v9.453h5.524a3.649 3.649 0 0 0 1.879-.53z" transform="translate(-32.645 -.271)"/>
        <path id="패스_6126" d="M132.856 291.683v-2.428a7.666 7.666 0 0 1 6.7 7.689v.335a7.666 7.666 0 0 1-6.7 7.689v-2.244c2.044-.551 3.68-2.879 3.676-5.612a5.43 5.43 0 0 0-3.676-5.429z" class="cls-1" transform="translate(-24.009 -.105)"/>
        <path id="패스_6127" d="M118.154 291.683v-2.428a7.666 7.666 0 0 0-6.7 7.689v.335a7.666 7.666 0 0 0 6.7 7.689v-2.244c-2.044-.551-3.68-2.879-3.676-5.612a5.421 5.421 0 0 1 3.676-5.429z" class="cls-1" transform="translate(-15.159 -.105)"/>
        <path id="사각형_1173" d="M0 0H2.934V15.391H0z" transform="translate(137.845 289.416)"/>
        <path id="사각형_1174" d="M0 0H2.934V14.603H0z" transform="translate(149.492 290.204)"/>
        <path id="사각형_1175" d="M0 0H12.536V2.934H0z" transform="translate(144.691 289.416)"/>
    </g>
</svg>
