<svg xmlns="http://www.w3.org/2000/svg" width="450" height="370" viewBox="0 0 450 370">
    <defs>
        <style>
            .cls-2{fill:#1a1a1a}.cls-3{fill:#229ea7}.cls-4{fill:#fff}.cls-6{fill:#31e6f1}.cls-8{fill:#2ac3cc}.cls-11{fill:#ececec}.cls-12{fill:#737373}.cls-13{fill:#38f598}.cls-15{fill:#8d8d8d}.cls-16,.cls-32,.cls-39{fill:#6cf08d}.cls-18,.cls-32{opacity:.5}.cls-34{fill:#42b15d}.cls-39{opacity:.7}
        </style>
    </defs>
    <g id="recommendation_img" transform="translate(-1034 -2522.439)">
        <g id="그룹_8328" transform="translate(1034 2548.691)">
            <g id="그룹_8295" opacity="0.048" transform="translate(53.594 77.595)">
                <path id="패스_10302" d="M538.391 158.244l-33.957-19.605 33.957-19.606 33.958 19.606zm-31.553-19.605l31.553 18.217 31.554-18.217-31.554-18.217z" class="cls-2" transform="translate(-175.949 -119.03)"/>
                <path id="패스_10303" d="M478.038 158.244l-33.958-19.607 33.957-19.605.3.175L512 138.638zm-31.554-19.606l31.554 18.218 31.553-18.217-31.554-18.217z" class="cls-2" transform="translate(-181.291 -119.03)"/>
                <path id="패스_10304" d="M508.215 175.667l-33.958-19.605 33.958-19.606 33.957 19.606zm-31.554-19.605l31.554 18.217 31.553-18.217-31.553-18.217z" class="cls-2" transform="translate(-178.527 -117.541)"/>
                <path id="패스_10305" d="M538.392 193.09l-.3-.174-33.659-19.432 33.957-19.606.3.174 33.659 19.433zm-31.554-19.605l31.554 18.215 31.554-18.217-31.555-18.218z" class="cls-2" transform="translate(-175.949 -116.052)"/>
                <path id="패스_10306" d="M417.683 158.243l-.3-.174-33.659-19.432 33.957-19.606.3.175 33.659 19.432zm-31.554-19.605l31.554 18.217 31.554-18.217-31.555-18.218z" class="cls-2" transform="translate(-186.634 -119.03)"/>
                <path id="패스_10307" d="M447.861 175.666l-.3-.174L413.9 156.06l33.957-19.606 33.958 19.608zm-31.554-19.606l31.554 18.217 31.553-18.216-31.554-18.218z" class="cls-2" transform="translate(-183.963 -117.541)"/>
                <path id="패스_10308" d="M478.039 193.089l-.3-.174-33.659-19.432 33.957-19.605L512 173.484zm-31.554-19.605l31.554 18.216 31.552-18.216-31.553-18.218z" class="cls-2" transform="translate(-181.291 -116.052)"/>
                <path id="패스_10309" d="M508.216 210.513l-33.958-19.608 33.957-19.6.3.174 33.659 19.432zm-31.554-19.608l31.554 18.219 31.553-18.218-31.554-18.217z" class="cls-2" transform="translate(-178.527 -114.564)"/>
                <path id="패스_10310" d="M538.393 227.936l-.3-.174-33.659-19.433 33.957-19.605.3.174 33.659 19.432zm-31.554-19.606l31.554 18.217 31.554-18.217-31.555-18.217z" class="cls-2" transform="translate(-175.949 -113.075)"/>
                <path id="패스_10311" d="M357.329 158.243l-33.958-19.606 33.957-19.605.3.175 33.659 19.432zm-31.554-19.606l31.554 18.218 31.553-18.217-31.554-18.218z" class="cls-2" transform="translate(-191.977 -119.03)"/>
                <path id="패스_10312" d="M387.507 175.666l-.3-.174-33.659-19.432 33.958-19.606.3.174 33.659 19.433zm-31.555-19.606l31.555 18.217 31.553-18.217-31.554-18.217z" class="cls-2" transform="translate(-189.305 -117.541)"/>
                <path id="패스_10313" d="M417.684 193.089l-.3-.174-33.659-19.432 33.957-19.606.3.174 33.659 19.433zm-31.554-19.606l31.554 18.217 31.554-18.217-31.555-18.218z" class="cls-2" transform="translate(-186.634 -116.052)"/>
                <path id="패스_10314" d="M447.862 210.512l-.3-.174-33.662-19.433 33.961-19.605.3.174 33.658 19.432zm-31.554-19.606l31.554 18.218 31.553-18.218-31.554-18.217z" class="cls-2" transform="translate(-183.963 -114.564)"/>
                <path id="패스_10315" d="M478.039 227.935l-33.957-19.606 33.957-19.605L512 208.329zm-31.553-19.606l31.553 18.217 31.553-18.216-31.553-18.218z" class="cls-2" transform="translate(-181.291 -113.075)"/>
                <path id="패스_10316" d="M508.217 245.359l-33.959-19.608 33.958-19.6.3.174 33.659 19.432zm-31.555-19.608l31.555 18.218 31.553-18.217-31.554-18.217z" class="cls-2" transform="translate(-178.527 -111.586)"/>
                <path id="패스_10317" d="M538.394 262.781l-.3-.174-33.659-19.432 33.957-19.606.3.175 33.659 19.432zm-31.554-19.606l31.554 18.217 31.554-18.217-31.555-18.217z" class="cls-2" transform="translate(-175.949 -110.097)"/>
                <path id="패스_10318" d="M296.974 158.242l-.3-.174-33.659-19.432 33.957-19.606.3.175 33.659 19.432zm-31.554-19.606l31.554 18.217 31.554-18.217-31.555-18.217z" class="cls-2" transform="translate(-197.319 -119.03)"/>
                <path id="패스_10319" d="M327.152 175.665l-.3-.174-33.659-19.432 33.957-19.606 33.958 19.608zM295.6 156.059l31.554 18.217 31.553-18.216-31.554-18.218z" class="cls-2" transform="translate(-194.648 -117.541)"/>
                <path id="패스_10320" d="M357.33 193.088l-.3-.174-33.659-19.432 33.957-19.605.3.174 33.659 19.433zm-31.554-19.605L357.33 191.7l31.553-18.216-31.554-18.218z" class="cls-2" transform="translate(-191.977 -116.052)"/>
                <path id="패스_10321" d="M387.508 210.512L353.549 190.9l33.958-19.6.3.174 33.659 19.432zM355.953 190.9l31.555 18.219 31.553-18.218-31.554-18.217z" class="cls-2" transform="translate(-189.305 -114.564)"/>
                <path id="패스_10322" d="M417.685 227.935l-.3-.174-33.659-19.433 33.957-19.605.3.174 33.659 19.432zm-31.554-19.606l31.554 18.217 31.554-18.217-31.555-18.217z" class="cls-2" transform="translate(-186.634 -113.075)"/>
                <path id="패스_10323" d="M447.862 245.358L413.9 225.751l33.957-19.605 33.957 19.605zm-31.553-19.606l31.553 18.217 31.553-18.217-31.553-18.217z" class="cls-2" transform="translate(-183.962 -111.586)"/>
                <path id="패스_10324" d="M478.04 262.78l-.3-.174-33.658-19.432 33.957-19.606L512 243.176zm-31.554-19.605l31.554 18.217 31.553-18.216-31.554-18.218z" class="cls-2" transform="translate(-181.291 -110.098)"/>
                <path id="패스_10325" d="M508.218 280.2l-.3-.174-33.659-19.426 33.958-19.605.3.174 33.658 19.431zm-31.555-19.6l31.555 18.217 31.553-18.217-31.554-18.217z" class="cls-2" transform="translate(-178.527 -108.609)"/>
                <path id="패스_10326" d="M538.4 297.627l-33.963-19.607 33.957-19.605.3.174 33.657 19.433zm-31.559-19.607l31.559 18.218 31.554-18.217-31.56-18.221z" class="cls-2" transform="translate(-175.948 -107.12)"/>
                <path id="패스_10327" d="M236.62 158.241l-.3-.174-33.659-19.432 33.957-19.605.3.175 33.659 19.432zm-31.554-19.605l31.554 18.217 31.553-18.216-31.554-18.217z" class="cls-2" transform="translate(-202.662 -119.03)"/>
                <path id="패스_10328" d="M266.8 175.665l-33.96-19.607 33.96-19.605.3.174 33.659 19.433zm-31.555-19.606l31.555 18.217 31.553-18.217-31.553-18.217z" class="cls-2" transform="translate(-200.083 -117.541)"/>
                <path id="패스_10329" d="M296.975 193.088l-.3-.174-33.659-19.432 33.957-19.606.3.174 33.659 19.433zm-31.554-19.605l31.554 18.217 31.554-18.217-31.555-18.218z" class="cls-2" transform="translate(-197.319 -116.053)"/>
                <path id="패스_10330" d="M327.153 210.511l-.3-.174L293.2 190.9l33.952-19.6.3.174L361.11 190.9zM295.6 190.9l31.554 18.218 31.552-18.218-31.554-18.217z" class="cls-2" transform="translate(-194.648 -114.564)"/>
                <path id="패스_10331" d="M357.331 227.934l-.3-.174-33.658-19.433 33.957-19.605 33.958 19.606zm-31.554-19.606l31.554 18.218 31.553-18.217-31.554-18.219z" class="cls-2" transform="translate(-191.976 -113.075)"/>
                <path id="패스_10332" d="M387.509 245.357l-.3-.174-33.659-19.433 33.958-19.6.3.174 33.659 19.432zm-31.555-19.607l31.555 18.217 31.553-18.216-31.554-18.217z" class="cls-2" transform="translate(-189.305 -111.586)"/>
                <path id="패스_10333" d="M417.686 262.78l-33.958-19.606 33.957-19.605 33.958 19.606zm-31.554-19.606l31.554 18.218 31.553-18.217-31.554-18.217z" class="cls-2" transform="translate(-186.634 -110.098)"/>
                <path id="패스_10334" d="M447.863 280.2l-33.957-19.6 33.956-19.606.3.174L481.82 260.6zm-31.553-19.6l31.553 18.217 31.553-18.217-31.554-18.22z" class="cls-2" transform="translate(-183.962 -108.609)"/>
                <path id="패스_10335" d="M478.041 297.626l-.3-.174-33.658-19.432 33.957-19.606.3.174L512 278.02zm-31.554-19.606l31.554 18.217 31.553-18.217-31.554-18.22z" class="cls-2" transform="translate(-181.291 -107.12)"/>
                <path id="패스_10336" d="M508.219 315.049l-.3-.174-33.659-19.433 33.958-19.605 33.958 19.606zm-31.555-19.606l31.555 18.218 31.553-18.217-31.554-18.218z" class="cls-2" transform="translate(-178.527 -105.631)"/>
                <path id="패스_10337" d="M538.4 332.473l-33.958-19.607 33.957-19.6.3.174 33.658 19.432zm-31.554-19.607l31.554 18.217 31.554-18.217-31.554-18.217z" class="cls-2" transform="translate(-175.948 -104.142)"/>
                <path id="패스_10338" d="M236.621 193.087l-.3-.174-33.659-19.432 33.957-19.606 33.958 19.608zm-31.554-19.605l31.554 18.218 31.553-18.216-31.554-18.221z" class="cls-2" transform="translate(-202.662 -116.053)"/>
                <path id="패스_10339" d="M266.8 210.511L232.84 190.9l33.96-19.6.3.174 33.656 19.426zM235.244 190.9l31.556 18.222 31.552-18.222-31.552-18.213z" class="cls-2" transform="translate(-200.083 -114.564)"/>
                <path id="패스_10340" d="M296.976 227.934l-.3-.174-33.659-19.433 33.957-19.605.3.174 33.659 19.432zm-31.554-19.606l31.554 18.218 31.554-18.218-31.555-18.218z" class="cls-2" transform="translate(-197.319 -113.075)"/>
                <path id="패스_10341" d="M327.154 245.357l-.3-.174L293.2 225.75l33.957-19.605.3.174 33.659 19.432zM295.6 225.75l31.554 18.217 31.553-18.217-31.554-18.217z" class="cls-2" transform="translate(-194.648 -111.586)"/>
                <path id="패스_10342" d="M357.332 262.78l-.3-.175-33.658-19.432 33.957-19.605.3.174 33.659 19.432zm-31.554-19.606l31.554 18.217 31.553-18.217-31.554-18.217z" class="cls-2" transform="translate(-191.976 -110.098)"/>
                <path id="패스_10343" d="M387.51 280.2l-.3-.174-33.659-19.426 33.958-19.606 33.958 19.606zm-31.555-19.6l31.555 18.217 31.553-18.217-31.554-18.218z" class="cls-2" transform="translate(-189.305 -108.609)"/>
                <path id="패스_10344" d="M417.686 297.626l-33.957-19.606 33.957-19.605 33.958 19.606zm-31.553-19.606l31.553 18.218 31.554-18.218-31.554-18.22z" class="cls-2" transform="translate(-186.634 -107.12)"/>
                <path id="패스_10345" d="M447.864 315.049l-.3-.174-33.659-19.433 33.957-19.605.3.174 33.659 19.432zm-31.554-19.607l31.554 18.218 31.553-18.218-31.554-18.217z" class="cls-2" transform="translate(-183.962 -105.631)"/>
                <path id="패스_10346" d="M478.042 332.472l-.3-.174-33.658-19.433 33.957-19.605.3.174L512 312.865zm-31.555-19.606l31.555 18.218 31.558-18.219-31.554-18.217z" class="cls-2" transform="translate(-181.291 -104.143)"/>
                <path id="패스_10347" d="M508.22 349.895l-.3-.174-33.659-19.433 33.958-19.605 33.958 19.606zm-31.555-19.606l31.555 18.217 31.553-18.216-31.554-18.218z" class="cls-2" transform="translate(-178.527 -102.654)"/>
                <path id="패스_10348" d="M538.4 367.318l-.3-.175-33.659-19.432 33.959-19.605.3.175 33.658 19.432zm-31.554-19.606l31.554 18.216 31.554-18.216L538.4 329.5z" class="cls-2" transform="translate(-175.948 -101.165)"/>
                <path id="패스_10349" d="M236.622 227.933l-.3-.174-33.659-19.433 33.957-19.605 33.958 19.606zm-31.554-19.606l31.554 18.218 31.553-18.217-31.554-18.218z" class="cls-2" transform="translate(-202.662 -113.075)"/>
                <path id="패스_10350" d="M266.8 245.356l-.3-.174-33.659-19.433 33.958-19.6.3.174 33.659 19.432zm-31.555-19.606l31.555 18.216 31.553-18.216-31.553-18.217z" class="cls-2" transform="translate(-200.083 -111.586)"/>
                <path id="패스_10351" d="M296.977 262.78l-33.958-19.608 33.957-19.6.3.174 33.659 19.432zm-31.554-19.608l31.554 18.218 31.554-18.217-31.555-18.217z" class="cls-2" transform="translate(-197.319 -110.098)"/>
                <path id="패스_10352" d="M327.155 280.2l-.3-.174L293.2 260.6l33.957-19.606.3.174 33.655 19.432zM295.6 260.6l31.554 18.217 31.554-18.217-31.554-18.217z" class="cls-2" transform="translate(-194.648 -108.609)"/>
                <path id="패스_10353" d="M357.333 297.625l-.3-.174-33.658-19.432 33.957-19.606.3.174 33.659 19.433zm-31.554-19.605l31.554 18.217 31.553-18.217-31.554-18.22z" class="cls-2" transform="translate(-191.976 -107.12)"/>
                <path id="패스_10354" d="M387.51 315.048l-33.958-19.605 33.958-19.606 33.957 19.606zm-31.554-19.605l31.554 18.217 31.553-18.217-31.553-18.219z" class="cls-2" transform="translate(-189.305 -105.631)"/>
                <path id="패스_10355" d="M417.687 332.471l-.3-.174-33.659-19.433 33.957-19.6.3.174 33.658 19.432zm-31.554-19.606l31.554 18.218 31.554-18.217-31.555-18.217z" class="cls-2" transform="translate(-186.634 -104.143)"/>
                <path id="패스_10356" d="M447.865 349.895l-33.958-19.608 33.957-19.6.3.174 33.659 19.432zm-31.554-19.608l31.554 18.218 31.553-18.217-31.554-18.217z" class="cls-2" transform="translate(-183.962 -102.654)"/>
                <path id="패스_10357" d="M478.043 367.318l-.3-.175-33.658-19.432 33.957-19.605.3.174L512 347.711zm-31.555-19.606l31.555 18.217 31.557-18.218-31.554-18.217z" class="cls-2" transform="translate(-181.291 -101.165)"/>
                <path id="패스_10358" d="M236.623 262.779l-.3-.175-33.658-19.432 33.957-19.605.3.174 33.659 19.432zm-31.554-19.606l31.554 18.217 31.553-18.217-31.554-18.217z" class="cls-2" transform="translate(-202.662 -110.098)"/>
                <path id="패스_10359" d="M266.8 280.2l-.3-.174-33.658-19.426 33.958-19.611 33.958 19.611zm-31.554-19.6l31.554 18.213 31.554-18.213-31.554-18.222z" class="cls-2" transform="translate(-200.083 -108.609)"/>
                <path id="패스_10360" d="M296.978 297.625l-33.958-19.607 33.957-19.605.3.174 33.659 19.433zm-31.554-19.606l31.554 18.218 31.554-18.217-31.555-18.22z" class="cls-2" transform="translate(-197.319 -107.12)"/>
                <path id="패스_10361" d="M327.156 315.048l-.3-.174-33.656-19.432 33.957-19.606.3.174 33.659 19.433zM295.6 295.442l31.554 18.217 31.553-18.217-31.554-18.218z" class="cls-2" transform="translate(-194.648 -105.631)"/>
                <path id="패스_10362" d="M357.334 332.471l-.3-.174-33.658-19.433 33.957-19.605 33.957 19.605zm-31.555-19.606l31.555 18.218 31.552-18.218-31.553-18.217z" class="cls-2" transform="translate(-191.976 -104.143)"/>
                <path id="패스_10363" d="M387.511 349.894l-33.958-19.606 33.957-19.605.3.174 33.659 19.432zm-31.554-19.606l31.554 18.212 31.553-18.217-31.554-18.213z" class="cls-2" transform="translate(-189.305 -102.654)"/>
                <path id="패스_10364" d="M417.688 367.317l-.3-.175-33.658-19.432 33.957-19.605 33.958 19.606zm-31.554-19.607l31.554 18.217 31.554-18.216-31.555-18.218z" class="cls-2" transform="translate(-186.634 -101.165)"/>
                <path id="패스_10365" d="M236.624 297.624l-.3-.174-33.658-19.432 33.957-19.606.3.174 33.659 19.433zm-31.554-19.606l31.554 18.217 31.553-18.217-31.554-18.218z" class="cls-2" transform="translate(-202.662 -107.12)"/>
                <path id="패스_10366" d="M266.8 315.047l-.3-.174-33.659-19.432 33.959-19.606 33.958 19.607zm-31.555-19.605l31.555 18.216 31.553-18.216-31.553-18.219z" class="cls-2" transform="translate(-200.083 -105.631)"/>
                <path id="패스_10367" d="M296.979 332.47l-.3-.174-33.659-19.433 33.957-19.6.3.174 33.658 19.432zm-31.554-19.606l31.554 18.218 31.554-18.217-31.555-18.217z" class="cls-2" transform="translate(-197.319 -104.143)"/>
                <path id="패스_10368" d="M327.157 349.894L293.2 330.286l33.957-19.6.3.174 33.659 19.432zM295.6 330.286l31.557 18.214 31.553-18.217-31.554-18.213z" class="cls-2" transform="translate(-194.648 -102.654)"/>
                <path id="패스_10369" d="M357.334 367.317l-33.957-19.607 33.957-19.605 33.957 19.605zM325.78 347.71l31.554 18.217 31.553-18.217-31.553-18.217z" class="cls-2" transform="translate(-191.976 -101.165)"/>
                <path id="패스_10370" d="M236.625 332.47l-.3-.174-33.658-19.433 33.957-19.605.3.174 33.659 19.432zm-31.555-19.607l31.555 18.218 31.553-18.218-31.554-18.217z" class="cls-2" transform="translate(-202.662 -104.143)"/>
                <path id="패스_10371" d="M266.8 349.893l-.3-.174-33.659-19.433 33.959-19.605.3.174 33.659 19.432zm-31.555-19.606L266.8 348.5l31.553-18.217-31.553-18.214z" class="cls-2" transform="translate(-200.083 -102.654)"/>
                <path id="패스_10372" d="M296.98 367.316l-.3-.175-33.659-19.432 33.958-19.609 33.958 19.606zm-31.554-19.606l31.554 18.217 31.554-18.216-31.555-18.218z" class="cls-2" transform="translate(-197.319 -101.165)"/>
                <path id="패스_10373" d="M236.626 367.316l-.3-.175-33.658-19.432 33.957-19.609.3.174 33.659 19.432zm-31.555-19.606l31.555 18.217 31.553-18.217-31.554-18.217z" class="cls-2" transform="translate(-202.661 -101.165)"/>
            </g>
            <g id="그룹_8297" transform="translate(104.401 40.811)">
                <g id="그룹_8296">
                    <path id="패스_10374" d="M275.483 158.063l-24.521-14.157 24.52-14.157L300 143.907z" class="cls-3" transform="translate(-249.098 -79.744)"/>
                    <path id="패스_10375" d="M275.63 150.28a1.854 1.854 0 0 1-.931-.251l-24.521-14.156a1.864 1.864 0 0 1 0-3.229l24.52-14.156a1.862 1.862 0 0 1 1.864 0l24.521 14.157a1.863 1.863 0 0 1 0 3.228l-24.52 14.156a1.858 1.858 0 0 1-.933.251zm-20.793-16.022l20.793 12.005 20.793-12-20.794-12z" class="cls-4" transform="translate(-249.245 -80.728)"/>
                    <path id="패스_10376" fill="#0d9ea7" d="M298.073 125.035l-24.52 14.157V110.88l24.52-14.157z" transform="translate(-247.168 -82.566)"/>
                    <path id="패스_10377" d="M275.483 111.994l-24.52-14.157 24.52-14.156L300 97.838z" class="cls-6" transform="translate(-249.098 -83.681)"/>
                    <path id="패스_10378" fill="#23c3cc" d="M275.483 139.192l-24.52-14.157V96.723l24.52 14.157z" transform="translate(-249.098 -82.566)"/>
                </g>
                <path id="패스_10379" d="M265.957 122.693l-6.858-3.96v-7.919l6.858 3.96z" class="cls-4" transform="translate(-248.403 -81.362)"/>
            </g>
            <g id="그룹_8299" transform="translate(49.279 252.216)">
                <g id="그룹_8298">
                    <path id="패스_10380" d="M224.925 354.287L200.4 340.13l24.52-14.157 24.521 14.157z" class="cls-3" transform="translate(-198.54 -275.968)"/>
                    <path id="패스_10381" d="M225.072 346.5a1.868 1.868 0 0 1-.932-.25l-24.52-14.15a1.862 1.862 0 0 1 0-3.228l24.519-14.157a1.862 1.862 0 0 1 1.864 0l24.52 14.157a1.863 1.863 0 0 1 0 3.228L226 346.254a1.861 1.861 0 0 1-.928.246zm-20.792-16.02l20.792 12 20.792-12-20.792-12.005z" class="cls-4" transform="translate(-198.687 -276.952)"/>
                    <path id="패스_10382" d="M247.515 321.259L223 335.416V307.1l24.52-14.157z" class="cls-3" transform="translate(-196.61 -278.79)"/>
                    <path id="패스_10383" d="M224.925 308.218l-24.52-14.157 24.52-14.156 24.52 14.157z" class="cls-6" transform="translate(-198.54 -279.905)"/>
                    <path id="패스_10384" d="M224.925 335.416l-24.52-14.157v-28.312l24.52 14.157z" class="cls-8" transform="translate(-198.54 -278.79)"/>
                </g>
                <path id="패스_10385" d="M215.4 318.917l-6.858-3.96v-7.919L215.4 311z" class="cls-4" transform="translate(-197.845 -277.586)"/>
            </g>
            <g id="그룹_8302" transform="translate(349.817 205.492)">
                <path id="패스_10386" d="M511.709 312.5l-33.828-19.53c-2.075-1.2-1.815-3.292.582-4.676l32.663-18.859c2.4-1.384 6.024-1.534 8.1-.335l33.828 19.53c2.076 1.2 1.816 3.292-.582 4.676l-32.663 18.859c-2.397 1.384-6.023 1.535-8.1.335z" class="cls-3" transform="translate(-474.56 -233.824)"/>
                <path id="패스_10387" d="M515.4 305.545a9.107 9.107 0 0 1-4.5-1.076l-33.828-19.529a4.306 4.306 0 0 1-2.361-3.7 5.173 5.173 0 0 1 2.944-4.309l32.662-18.859c3.023-1.742 7.331-1.888 10.022-.334l33.827 19.529a4.3 4.3 0 0 1 2.362 3.7 5.178 5.178 0 0 1-2.944 4.309l-32.663 18.857a11.254 11.254 0 0 1-5.521 1.412zm.483-45.033a7.576 7.576 0 0 0-3.641.892l-32.663 18.859c-.821.474-1.017.9-1.022.983a1.237 1.237 0 0 0 .442.367l33.828 19.529c1.491.861 4.379.7 6.176-.336l32.664-18.859c.821-.473 1.018-.9 1.023-.982a1.246 1.246 0 0 0-.443-.367l-33.83-19.528a5.212 5.212 0 0 0-2.538-.558z" class="cls-4" transform="translate(-474.711 -234.817)"/>
                <path id="패스_10388" d="M554.444 269.422V257.75l-26.171-.014-9.047-5.223c-2.075-1.2-5.7-1.049-8.1.335l-8.44 4.874-26.2-.015v12a2.345 2.345 0 0 0 1.39 2.17l33.828 19.53c2.076 1.2 5.7 1.049 8.1-.335l32.663-18.859c1.388-.794 2.055-1.828 1.977-2.791z" class="cls-3" transform="translate(-474.559 -235.241)"/>
                <path id="패스_10389" d="M515.468 251.709a9.35 9.35 0 0 0-4.342 1.139l-8.44 4.874-26.2-.015v12a2.345 2.345 0 0 0 1.39 2.17l33.828 19.53a7.32 7.32 0 0 0 3.759.8z" class="cls-8" transform="translate(-474.559 -235.241)"/>
                <path id="패스_10390" fill="#36d3dd" d="M479.455 257.236h-2.964v12a2.345 2.345 0 0 0 1.39 2.17l1.574.91z" transform="translate(-474.559 -234.768)"/>
                <path id="패스_10391" fill="#29acb5" d="M509.416 289.6a9.224 9.224 0 0 0 6.475-.074V275.9h-6.475z" transform="translate(-471.746 -233.174)"/>
                <path id="패스_10392" d="M511.709 280.746l-33.828-19.529c-2.075-1.2-1.815-3.293.582-4.677l32.663-18.857c2.4-1.384 6.024-1.535 8.1-.336l33.828 19.53c2.076 1.2 1.816 3.292-.582 4.676l-32.663 18.859c-2.397 1.383-6.023 1.534-8.1.334z" class="cls-6" transform="translate(-474.56 -236.537)"/>
                <path id="패스_10393" d="M552.472 257.582l-32.663 18.859c-2.4 1.384-6.023 1.535-8.1.335l-33.828-19.53a3.123 3.123 0 0 1-1.036-.919c-.713 1.148-.39 2.393 1.036 3.216l33.828 19.53c2.076 1.2 5.7 1.049 8.1-.335l32.663-18.859c1.863-1.075 2.429-2.577 1.617-3.757a4.527 4.527 0 0 1-1.617 1.46z" class="cls-4" transform="translate(-474.56 -234.863)"/>
                <g id="그룹_8300" transform="translate(64.71 31.21)">
                    <path id="패스_10394" d="M537.059 270.942a3.018 3.018 0 0 1-1.366 2.366c-.754.436-1.367.082-1.367-.788a3.023 3.023 0 0 1 1.367-2.367c.755-.436 1.366-.083 1.366.789z" class="cls-11" transform="translate(-534.327 -264.89)"/>
                    <path id="패스_10395" d="M541.109 268.6a3.02 3.02 0 0 1-1.366 2.366c-.755.435-1.367.082-1.367-.789a3.02 3.02 0 0 1 1.367-2.366c.757-.432 1.366-.079 1.366.789z" class="cls-11" transform="translate(-533.981 -265.09)"/>
                    <path id="패스_10396" d="M545.159 266.266a3.02 3.02 0 0 1-1.367 2.366c-.754.435-1.365.083-1.365-.789a3.018 3.018 0 0 1 1.365-2.366c.756-.437 1.367-.083 1.367.789z" class="cls-11" transform="translate(-533.635 -265.29)"/>
                </g>
                <g id="그룹_8301" transform="translate(22.664 11.413)">
                    <path id="패스_10397" d="M512.077 267.74l-15.83-9.139c-.971-.56-.85-1.54.272-2.188l15.284-8.825a4.218 4.218 0 0 1 3.79-.157l15.83 9.139c.971.561.85 1.541-.273 2.188l-15.284 8.825a4.211 4.211 0 0 1-3.789.157z" class="cls-8" transform="translate(-495.591 -247.052)"/>
                    <path id="패스_10398" d="M512.355 259.286l-2.19-1.265c-.135-.077-.117-.213.038-.3l2.114-1.22a.583.583 0 0 1 .524-.023l2.19 1.265c.135.078.117.214-.038.3l-2.114 1.221a.58.58 0 0 1-.524.022z" class="cls-11" transform="translate(-494.353 -246.251)"/>
                    <path id="패스_10399" d="M496.247 258.6l.046.026a2.3 2.3 0 0 1 .227-.156l15.284-8.825a4.214 4.214 0 0 1 3.79-.157l15.786 9.113c.9-.64.942-1.513.045-2.032l-15.83-9.139a4.218 4.218 0 0 0-3.79.157l-15.284 8.825c-1.121.648-1.246 1.628-.274 2.188z" class="cls-3" transform="translate(-495.591 -247.052)"/>
                </g>
            </g>
            <path id="패스_10400" d="M578.484 204.069l-105.71-61.215c-5.742-3.326-15.781-2.924-22.422.9L228.495 271.431c-6.642 3.822-7.37 9.617-1.628 12.943l105.711 61.215c5.742 3.326 15.781 2.924 22.422-.9l221.857-127.677c6.643-3.822 7.369-9.612 1.627-12.943z" class="cls-12" transform="translate(-146.403 -39.591)"/>
            <path id="패스_10401" d="M342.518 336.087a21.735 21.735 0 0 1-10.723-2.518l-105.71-61.215c-3.1-1.794-4.8-4.362-4.8-7.232 0-3.318 2.348-6.568 6.427-8.916l221.862-127.679c7.263-4.181 17.924-4.573 24.273-.9l105.712 61.216c3.1 1.793 4.8 4.361 4.794 7.231 0 3.318-2.347 6.568-6.427 8.916L356.069 332.672a27.789 27.789 0 0 1-13.551 3.415zm120.658-207.242a24.334 24.334 0 0 0-11.757 2.889L229.563 259.413c-2.86 1.647-4.57 3.782-4.572 5.714 0 1.911 1.6 3.243 2.949 4.024l105.71 61.215c5.135 2.974 14.556 2.562 20.571-.9l221.858-127.68c2.861-1.646 4.57-3.782 4.573-5.714 0-1.911-1.6-3.243-2.949-4.023l-105.712-61.216a18.007 18.007 0 0 0-8.815-1.988z" class="cls-13" transform="translate(-146.549 -40.915)"/>
            <g id="그룹_8307" transform="translate(66.929 39.034)">
                <g id="그룹_8303">
                    <path id="패스_10402" fill="#aaa" d="M330.471 311.71L220.186 248c-3.622-2.093-5.311-4.915-5.191-7.851l-.024.009.045-15.964 6.133 7.167c.4-.262.8-.523 1.234-.773l225.605-129.517c8.957-5.143 22.5-5.683 30.241-1.209l108.735 62.814c2.2-2.4 6.815-7.48 6.815-7.48l-.052 15.615c.163 3.52-2.348 7.27-7.406 10.174L360.711 310.5c-8.957 5.143-22.496 5.684-30.24 1.21z" transform="translate(-214.945 -80.781)"/>
                    <path id="패스_10403" d="M266.432 259.121l6.336 3.659c.841.485 1.524-.03 1.524-1.153a3.652 3.652 0 0 0-1.524-2.911l-6.336-3.658c-.842-.486-1.524.03-1.524 1.152a3.645 3.645 0 0 0 1.524 2.911z" class="cls-2" transform="translate(-210.678 -67.276)"/>
                    <path id="패스_10404" d="M437.251 101.071c8.935-5.143 22.442-5.683 30.167-1.209l108.469 62.814c2.195-2.4 6.8-7.48 6.8-7.48l-.052 15.615c.162 3.52-2.344 7.27-7.389 10.174L350.188 310.5a34.811 34.811 0 0 1-16.243 4.219l.214-154.32z" class="cls-12" transform="translate(-203.851 -80.781)"/>
                    <path id="패스_10405" d="M588.556 148.784L478.271 85.076c-7.744-4.474-21.283-3.934-30.24 1.208L222.425 215.8c-8.956 5.143-9.939 12.939-2.195 17.413l110.283 63.708c7.744 4.474 21.283 3.934 30.241-1.209L586.36 166.2c8.957-5.146 9.94-12.942 2.196-17.416z" class="cls-11" transform="translate(-214.942 -82.044)"/>
                    <path id="패스_10406" d="M330.435 292.684l-110.284-63.707c-3.994-2.308-5.648-5.5-5.1-8.754.2 2.644 1.894 5.148 5.187 7.05l110.283 63.708c7.744 4.474 21.283 3.934 30.241-1.209l225.603-129.519c4.338-2.49 6.788-5.6 7.3-8.659.264 3.575-2.234 7.407-7.383 10.363L360.676 291.476c-8.958 5.141-22.497 5.683-30.241 1.208z" class="cls-4" transform="translate(-214.947 -76.101)"/>
                    <path id="패스_10407" d="M579.4 150.839L473.419 89.623c-5.757-3.326-15.822-2.923-22.48.9L228.509 218.2c-6.659 3.822-7.389 9.616-1.632 12.942l105.983 61.217c5.757 3.326 15.822 2.923 22.48-.9l222.431-127.678c6.658-3.822 7.388-9.616 1.629-12.942z" class="cls-2" transform="translate(-214.259 -81.589)"/>
                </g>
                <g id="그룹_8305" transform="translate(55.274 133.159)">
                    <path id="패스_10408" d="M354.356 250.537l-74.6-43.067 4.761-2.749 74.6 43.068z" class="cls-15" transform="translate(-264.683 -204.721)"/>
                    <path id="패스_10409" d="M303.641 237.3l-37.771-21.81 4.761-2.749 37.769 21.806z" class="cls-15" transform="translate(-265.87 -204.036)"/>
                    <path id="패스_10410" d="M318.518 245.886l-12.25-7.073 4.761-2.749 12.25 7.073z" class="cls-16" transform="translate(-262.418 -202.043)"/>
                    <path id="패스_10411" d="M335.557 255.723l-12.25-7.073 4.761-2.749 12.25 7.073z" class="cls-4" transform="translate(-260.962 -201.202)"/>
                    <path id="패스_10412" d="M303.469 229.178l-30.654-17.7 4.761-2.749 30.654 17.7z" class="cls-4" transform="translate(-265.277 -204.378)"/>
                    <path id="패스_10413" d="M337.943 249.081l-30.654-17.7 4.761-2.749 30.654 17.7z" class="cls-15" transform="translate(-262.331 -202.678)"/>
                    <g id="그룹_8304" transform="translate(46.212 4.7)">
                        <path id="패스_10414" d="M315.15 212.923a6.139 6.139 0 0 1-5.555 0c-1.534-.886-1.534-2.322 0-3.207a6.139 6.139 0 0 1 5.555 0c1.534.884 1.534 2.321 0 3.207z" class="cls-16" transform="translate(-308.444 -209.051)"/>
                        <path id="패스_10415" d="M322.8 217.338a6.146 6.146 0 0 1-5.555 0c-1.534-.886-1.534-2.322 0-3.208a6.139 6.139 0 0 1 5.555 0c1.531.886 1.531 2.322 0 3.208z" class="cls-4" transform="translate(-307.791 -208.674)"/>
                        <path id="패스_10416" d="M330.443 221.752a6.137 6.137 0 0 1-5.554 0c-1.535-.886-1.535-2.321 0-3.206a6.137 6.137 0 0 1 5.554 0c1.534.885 1.534 2.32 0 3.206z" class="cls-15" transform="translate(-307.138 -208.297)"/>
                        <path id="패스_10417" d="M338.09 226.167a6.139 6.139 0 0 1-5.555 0c-1.534-.886-1.534-2.322 0-3.206a6.139 6.139 0 0 1 5.555 0c1.534.884 1.534 2.32 0 3.206z" class="cls-16" transform="translate(-306.484 -207.919)"/>
                        <path id="패스_10418" d="M345.737 230.582a6.139 6.139 0 0 1-5.555 0c-1.534-.886-1.534-2.322 0-3.207a6.139 6.139 0 0 1 5.555 0c1.534.885 1.534 2.325 0 3.207z" class="cls-4" transform="translate(-305.831 -207.542)"/>
                    </g>
                </g>
                <g id="그룹_8306" transform="translate(240.495 26.959)">
                    <path id="패스_10419" d="M499.9 147.07l-12.56-7.251 4.881-2.819 12.56 7.251z" class="cls-16" transform="translate(-431.239 -104.308)"/>
                    <path id="패스_10420" d="M516.011 156.372l-12.56-7.251 4.881-2.818 12.56 7.251z" class="cls-2" transform="translate(-429.862 -103.513)"/>
                    <path id="패스_10421" d="M448.215 116.951l-12.56-7.251 4.882-2.818 12.56 7.251z" class="cls-4" transform="translate(-435.655 -106.881)"/>
                    <path id="패스_10422" d="M497.707 154.027l-17.489-10.1 4.882-2.818 17.489 10.1z" class="cls-2" transform="translate(-431.848 -103.956)"/>
                    <path id="패스_10423" d="M508.505 160.261l-7.674-4.431 4.882-2.818 7.674 4.431z" class="cls-15" transform="translate(-430.086 -102.939)"/>
                </g>
            </g>
            <path id="패스_10453" d="M393.754 225.749l-74.029-42.741 1.964-1.134 74.029 42.741z" class="cls-15" transform="translate(-138.616 -35.262)"/>
            <path id="패스_10454" d="M343.692 198.083l-24.954-14.407 4.107-2.371 24.955 14.407z" class="cls-16" transform="translate(-138.753 -35.244)"/>
            <path id="패스_10455" d="M340.906 197.825l-1.05-.593 6.451-3.725 1.05.593z" class="cls-4" transform="translate(-136.92 -34.237)"/>
            <path id="패스_10456" d="M458.107 286.941a11.606 11.606 0 0 0-1.851 1.356c-.256-8.328-6.271-11.639-13.673-7.366-6.029 3.481-11.136 10.933-12.967 18.237a8.177 8.177 0 0 0-5.115 1.271c-5.4 3.115-9.77 10.693-9.77 16.923s4.374 8.757 9.77 5.641l33.605-19.4a15.946 15.946 0 0 0 7.214-12.5c0-4.597-3.229-6.462-7.213-4.162z" class="cls-6" transform="translate(-130.287 -27.76)"/>
            <path id="패스_10457" d="M209.865 189.737a12.156 12.156 0 0 0-3.1 2.66c-.145-6.1-4.524-8.541-9.918-5.427a18.056 18.056 0 0 0-4.766 4.158c-2.4-4.2-7.375-5.17-13.138-1.842-8.105 4.679-14.675 16.059-14.675 25.419a17.441 17.441 0 0 0 .147 2.187 5.537 5.537 0 0 0-4.11.829 15.522 15.522 0 0 0-7.022 12.162c0 4.479 3.143 6.293 7.022 4.054l49.556-28.611a14.921 14.921 0 0 0 6.75-11.692c.004-4.304-3.018-6.049-6.746-3.897z" class="cls-6" transform="translate(-153.287 -34.978)"/>
            <g id="그룹_8325" transform="translate(427.751 193.16)">
                <path id="패스_10458" d="M552.847 241.131a7 7 0 0 1-3.168 5.488c-1.75 1.011-3.168.191-3.168-1.829a7 7 0 0 1 3.168-5.488c1.749-1.01 3.168-.191 3.168 1.829z" class="cls-13" transform="translate(-546.51 -223.731)"/>
                <path id="패스_10459" d="M560.9 236.482a7 7 0 0 1-3.168 5.488c-1.751 1.011-3.168.191-3.168-1.829a7 7 0 0 1 3.168-5.488c1.749-1.01 3.168-.191 3.168 1.829z" class="cls-13" transform="translate(-545.822 -224.128)"/>
                <path id="패스_10460" d="M552.847 231.833a7 7 0 0 1-3.168 5.488c-1.75 1.011-3.168.191-3.168-1.829a7 7 0 0 1 3.167-5.492c1.75-1.006 3.169-.187 3.169 1.833z" class="cls-13" transform="translate(-546.51 -224.525)"/>
                <path id="패스_10461" d="M560.9 227.184a7 7 0 0 1-3.168 5.488c-1.751 1.011-3.168.191-3.168-1.829a7 7 0 0 1 3.168-5.488c1.749-1.01 3.168-.191 3.168 1.829z" class="cls-13" transform="translate(-545.822 -224.922)"/>
            </g>
            <g id="그룹_8326" transform="translate(305.684)">
                <path id="패스_10462" d="M440.644 58.136l-6.337 3.659v-7.318l6.337-3.659z" class="cls-6" transform="translate(-434.307 -45.678)"/>
                <path id="패스_10463" d="M448.746 53.4l-6.337 3.659v-7.318l6.337-3.659z" class="cls-6" transform="translate(-433.614 -46.083)"/>
                <path id="패스_10464" d="M440.694 66.882l-6.337 3.659v-7.318l6.337-3.659z" class="cls-6" transform="translate(-434.302 -44.93)"/>
                <path id="패스_10465" d="M448.746 62.233l-6.337 3.659v-7.318l6.337-3.659z" class="cls-6" transform="translate(-433.614 -45.328)"/>
            </g>
            <g id="그룹_8327" transform="translate(203.962 295.438)">
                <path id="패스_10466" d="M342.388 358.723a1.646 1.646 0 0 1-1.458-2.409 18.512 18.512 0 0 1 6.726-7.4 8.7 8.7 0 0 1 4.74-1.312c2.13.113 4.766-1.49 7.074-4.268a16.3 16.3 0 0 1 4.278-3.71 8.654 8.654 0 0 1 4.741-1.311c2.074.12 4.764-1.488 7.072-4.269a16.089 16.089 0 0 1 4.278-3.71 8.68 8.68 0 0 1 4.74-1.312c2.155.094 4.767-1.489 7.074-4.269a16.314 16.314 0 0 1 4.279-3.709c2.414-1.395 4.824-1.7 6.782-.842a1.647 1.647 0 1 1-1.314 3.02c-.977-.428-2.333-.186-3.821.675a13.013 13.013 0 0 0-3.392 2.96c-3.009 3.626-6.572 5.6-9.77 5.455a5.438 5.438 0 0 0-2.93.875 13.017 13.017 0 0 0-3.392 2.961c-3.01 3.626-6.607 5.6-9.769 5.455a5.381 5.381 0 0 0-2.93.874 13.015 13.015 0 0 0-3.392 2.96c-3.011 3.626-6.578 5.6-9.77 5.457a5.394 5.394 0 0 0-2.93.874 15.162 15.162 0 0 0-5.455 6.072 1.646 1.646 0 0 1-1.461.883z" class="cls-6" transform="translate(-340.742 -319.723)"/>
            </g>
        </g>
        <g id="그룹_8371" transform="translate(1211.976 2522.439)">
            <g id="그룹_8330" transform="translate(48.233 138.795)">
                <g id="그룹_8329">
                    <path id="패스_10467" fill="#f7f7f7" d="M581.568 457.642c17.215 9.943 17.305 26.068.19 36.015s-44.948 9.941-62.16 0c-17.235-9.946-17.322-26.071-.218-36.015s44.962-9.942 62.188 0z" transform="translate(-506.612 -450.184)"/>
                </g>
            </g>
            <g id="그룹_8332" class="cls-18" transform="translate(38.328 132.506)">
                <g id="그룹_8331">
                    <path id="패스_10468" fill="#c1c1c1" d="M594.954 457.1c21.1 12.177 21.208 31.942.238 44.13s-55.078 12.177-76.17 0c-21.112-12.188-21.223-31.953-.266-44.13 20.973-12.184 55.088-12.184 76.198 0z" transform="translate(-503.112 -447.963)"/>
                </g>
            </g>
            <g id="그룹_8333" transform="translate(56.891 141.98)">
                <path id="패스_10469" d="M569.864 457.3c13.827 7.979 13.9 20.934.153 28.922s-36.1 7.985-49.918 0c-13.838-7.988-13.912-20.942-.175-28.922s36.102-7.987 49.94 0z" class="cls-16" transform="translate(-509.671 -451.31)"/>
            </g>
            <g id="그룹_8341" transform="translate(62.343 42.22)">
                <g id="그룹_8334" transform="translate(0 102.599)">
                    <path id="패스_10470" fill="#fff" d="M520.412 457.369c-11.752 6.819-11.71 17.713-.133 24.449 11.6 6.751 30.467 6.83 42.233 0 11.67-6.736 11.729-17.7.136-24.449-11.622-6.742-30.564-6.742-42.236 0z" opacity="0.6" transform="translate(-511.597 -452.313)"/>
                </g>
                <g id="그룹_8335" opacity="0.833" transform="translate(0 85.5)">
                    <path id="패스_10471" fill="#fff" d="M520.412 451.328c-11.752 6.816-11.71 17.713-.133 24.452 11.6 6.748 30.467 6.824 42.233 0 11.67-6.739 11.729-17.7.136-24.452-11.622-6.742-30.564-6.742-42.236 0z" opacity="0.667" transform="translate(-511.597 -446.272)"/>
                </g>
                <g id="그룹_8336" opacity="0.667" transform="translate(0 68.399)">
                    <path id="패스_10472" fill="#fff" d="M520.412 445.288c-11.752 6.81-11.71 17.713-.133 24.452 11.6 6.75 30.467 6.818 42.233 0 11.67-6.739 11.729-17.707.136-24.452-11.622-6.744-30.564-6.744-42.236 0z" opacity="0.733" transform="translate(-511.597 -440.23)"/>
                </g>
                <g id="그룹_8337" class="cls-18" transform="translate(0 51.301)">
                    <path id="패스_10473" fill="#fff" d="M520.412 439.248c-11.752 6.807-11.71 17.713-.133 24.455 11.6 6.748 30.467 6.813 42.233 0 11.67-6.742 11.729-17.71.136-24.455-11.622-6.748-30.564-6.748-42.236 0z" opacity="0.8" transform="translate(-511.597 -434.189)"/>
                </g>
                <g id="그룹_8338" opacity="0.333" transform="translate(0 34.2)">
                    <path id="패스_10474" fill="#fff" d="M520.412 433.208c-11.752 6.8-11.71 17.71-.133 24.458 11.6 6.745 30.467 6.807 42.233 0 11.67-6.748 11.729-17.713.136-24.458-11.622-6.748-30.564-6.748-42.236 0z" opacity="0.867" transform="translate(-511.597 -428.147)"/>
                </g>
                <g id="그룹_8339" opacity="0.167" transform="translate(0 17.101)">
                    <path id="패스_10475" fill="#fff" d="M520.412 427.167c-11.752 6.8-11.71 17.71-.133 24.458 11.6 6.748 30.467 6.8 42.233 0 11.67-6.748 11.729-17.716.136-24.458-11.622-6.748-30.564-6.748-42.236 0z" opacity="0.933" transform="translate(-511.597 -422.106)"/>
                </g>
            </g>
            <path id="패스_10477" fill="#6cf08d" d="M518.979 448.461s-24.3-11.444-27.662-37.486l-1.746 18.208s0 21.121 29.844 32.539z" opacity="0.4" transform="translate(-489.571 -383.16)"/>
            <path id="패스_10478" d="M490.212 469.839c4.033-7.784 14.175-19.239 25.069-25.123 11.2-6.054 25.607-12.174 39.731-13.915l-.176-24.319c-14.124 1.741-27.537 5.6-38.735 11.653-22.857 12.355-28.643 29.98-25.889 51.704z" class="cls-32" transform="translate(-489.558 -391.384)"/>
            <path id="패스_10479" d="M585.49 471.476c5.672-21.112-.385-38.888-22.731-52.726a104.558 104.558 0 0 0-27.832-11.71l-.824 26.578a104.936 104.936 0 0 1 27.835 11.707c10.727 6.647 19.962 18.011 23.552 26.151z" class="cls-32" transform="translate(-408.057 -390.361)"/>
            <path id="패스_10480" d="M561.631 434.722l.821-26.578a146.524 146.524 0 0 0-46.552-.974l-.824 26.581a146.455 146.455 0 0 1 46.555.971z" class="cls-32" transform="translate(-442.885 -392.701)"/>
            <g id="그룹_8370" transform="translate(31.689 22.582)">
                <g id="그룹_8342" transform="translate(10.272)">
                    <path id="패스_10481" fill="#4bd86e" d="M612.642 467.73c1.5-24.585-29.312-72.969-82.083-54.495-30.2 10.563-37.252 27.588-5.177 51.044 0 0-.343 13.108 24.834 11.036 0 0 16.21-.691 27.161 7.586 11.591 8.766 34.588-4.075 35.265-15.171z" transform="translate(-504.396 -409.126)"/>
                </g>
                <g id="그룹_8343" transform="translate(20.08 4.364)">
                    <path id="패스_10482" d="M509.35 423.139c.082-.085 8.392-8.505 19.728-9a105.578 105.578 0 0 1 12.188.478c9.369.7 20.727 1.078 30.031-2.828l-2.474-1.124c-8.845 3.722-18.273 2.57-27.4 1.882a109.83 109.83 0 0 0-12.431-.478c-12.174.532-20.764 9.256-21.126 9.626z" class="cls-34" transform="translate(-507.861 -410.668)"/>
                </g>
                <g id="그룹_8344" transform="translate(55.617 .498)">
                    <path id="패스_10483" d="M520.71 416.058l1.778-.292a3.977 3.977 0 0 1 .11-1.132c.427-.71 3.9-3.227 12.964-4.67l-3.343-.662c-7.772 1.234-10.549 2.29-11.577 4.608a2.327 2.327 0 0 0 .068 2.148z" class="cls-34" transform="translate(-520.416 -409.302)"/>
                </g>
                <g id="그룹_8345" transform="translate(63.989 6.968)">
                    <path id="패스_10484" d="M542.57 427.39l2.049-1.483c-3.215-4.727-12.024-11.446-17.158-13.677-1.056-.464-.376-.139-1.466-.642l-2.621 1.092c1.1.507 2.193.979 3.261 1.446 5.065 2.203 13.056 9.033 15.935 13.264z" class="cls-34" transform="translate(-523.374 -411.588)"/>
                </g>
                <g id="그룹_8346" transform="translate(80.728 20.693)">
                    <path id="패스_10485" d="M561.431 431.008l-1.135-2.2a46.969 46.969 0 0 1-8.321-2.4c-2.219-.81-3.564-2.454-4.984-4.195-1.69-2.072-3.609-4.421-7.235-5.4a9.383 9.383 0 0 0-10.467 3.818l1.766 1.087a7.3 7.3 0 0 1 8.155-2.913c2.989.809 4.54 2.711 6.182 4.721 1.534 1.882 3.122 3.824 5.882 4.826a56.965 56.965 0 0 0 10.157 2.656z" class="cls-34" transform="translate(-529.288 -416.437)"/>
                </g>
                <g id="그룹_8347" transform="translate(90.434 12.227)">
                    <path id="패스_10486" d="M544.033 432.113c5.265-10.15-9.706-18.321-10.337-18.667l-.979 1.826c.133.074 13.813 7.546 9.479 15.89z" class="cls-34" transform="translate(-532.717 -413.446)"/>
                </g>
                <g id="그룹_8348" transform="translate(90.505 31.941)">
                    <path id="패스_10487" d="M551.788 459.684c.433-.388 9.513-7.979 5.457-16.167a28.947 28.947 0 0 0-6.38-8.112c-2.2-2.137-3.79-3.674-3.731-5.828.091-3.445-3.114-6.745-6.326-8.225-3.116-1.438-6.06-1.217-8.067.594l1.381 1.537c1.942-1.755 4.71-.759 5.819-.249 2.93 1.347 5.18 4.11 5.126 6.286-.085 3.063 1.973 5.064 4.353 7.368a26.8 26.8 0 0 1 5.969 7.546c3.36 6.784-7.017 17.056-7.116 17.138z" class="cls-34" transform="translate(-532.742 -420.411)"/>
                </g>
                <g id="그룹_8349" transform="translate(103.856 41.072)">
                    <path id="패스_10488" d="M550.674 428.893l-.863-2.91c-5.135-4.254-11.976-1.455-12.352-1.3l.747 1.922c.071-.027 8.843-2.914 12.468 2.288z" class="cls-34" transform="translate(-537.459 -423.637)"/>
                </g>
                <g id="그룹_8350" transform="translate(102.044 50.353)">
                    <path id="패스_10489" d="M537.841 443.953c8.749-8.135 8.5-16.524 8.469-16.595l-2.16-.442.227 1.178c.082.224-2.624 9.007-7.557 13.36z" class="cls-34" transform="translate(-536.819 -426.916)"/>
                </g>
                <path id="패스_10490" d="M577.367 478.3c-10.951-8.276-27.161-7.586-27.161-7.586-25.177 2.072-24.834-11.036-24.834-11.036-20.515-15-25-27.368-17.685-37.1a73.511 73.511 0 0 1 14.755-6.835c52.768-18.463 83.589 29.912 82.086 54.5a12.387 12.387 0 0 1-2.607 6.391c-7.76 4.666-17.987 6.641-24.554 1.666z" opacity="0.1" transform="translate(-494.114 -404.529)"/>
                <g id="그룹_8351" transform="translate(0 11.577)">
                    <path id="패스_10491" d="M603.765 471.089c1.5-24.583-23.108-70.708-82.083-54.5-12.372 3.4-37.252 27.594-5.18 51.044 0 0-.34 13.113 24.837 11.042a92.883 92.883 0 0 1 26.694 13.048c17.844 13.151 35.056-9.535 35.732-20.634z" class="cls-16" transform="translate(-500.767 -413.216)"/>
                </g>
                <g id="그룹_8352" transform="translate(12.655 16.224)">
                    <path id="패스_10492" d="M506.5 463.247l1.823 1.384c-.028-.051-2.148-6.151-.144-9.343 1.053-1.67 3.4-2.445 6.96-2.324l1.509.054c8.387.323 13.92.535 16.657-2.714 1.806-2.143 2.114-5.452 1-10.745-2.038-9.621-1.554-16.221 1.426-19.632 2-2.281 5.282-3.263 9.745-2.935 9.066.693 12.406 6.7 13.731 24.732.272 3.722 3.606 7.713 8.494 10.175 3.81 1.919 12.083 6.688 25.219-1.639l-.7-1.979c-12.242 7.758-20.093 3.527-23.592 1.766-4.837-2.428-7.175-6.009-7.356-8.474-1.223-16.6-4.079-25.766-15.638-26.646-5.146-.388-9 .832-11.461 3.637-3.484 3.977-4.1 10.988-1.894 21.424.957 4.54.781 7.4-.549 8.984-2.094 2.471-7.509 2.276-15 1.976l-1.511-.051c-4.339-.156-7.311.943-8.794 3.3-2.635 4.203-.074 8.778.075 9.05z" class="cls-34" transform="translate(-505.237 -414.858)"/>
                </g>
                <g id="그룹_8353" transform="translate(29.008 52.458)">
                    <path id="패스_10493" d="M529.223 441.275l2.055-.2c-1.373-14.35-20.082-13.416-20.263-13.4l.116 2.069c.682-.037 16.912-.83 18.092 11.531z" class="cls-34" transform="translate(-511.015 -427.66)"/>
                </g>
                <g id="그룹_8354" transform="translate(20.774 19.968)">
                    <path id="패스_10494" d="M526.246 433.232l2.027-.4c-.034-.178-3.688-17.4-20.167-16.623l.1 2.072c14.765-.747 17.913 14.311 18.04 14.951z" class="cls-34" transform="translate(-508.106 -416.181)"/>
                </g>
                <g id="그룹_8355" transform="translate(17.505 22.771)">
                    <path id="패스_10495" d="M508.935 427.363c2.338-7.968 11.9-8.126 12-8.126l-.017-2.066c-.11 0-11.2.184-13.968 9.607z" class="cls-34" transform="translate(-506.951 -417.171)"/>
                </g>
                <g id="그룹_8356" transform="translate(65.388 41.259)">
                    <path id="패스_10496" d="M539.724 452.811l.75-1.93c-20.042-7.818-13.762-25.706-13.487-26.468l-1.947-.71c-.071.197-7.224 20.561 14.684 29.108z" class="cls-34" transform="translate(-523.868 -423.703)"/>
                </g>
                <g id="그룹_8357" transform="translate(66.361 59.255)">
                    <path id="패스_10497" d="M527.9 446.922l1.4-1.529c-5.822-5.355-1.356-14.3-1.308-14.384l-1.843-.948c-.216.427-5.215 10.45 1.751 16.861z" class="cls-34" transform="translate(-524.212 -430.061)"/>
                </g>
                <g id="그룹_8358" transform="translate(51.15 25.197)">
                    <path id="패스_10498" d="M533.271 426.1l1.684-1.2c-.065-.1-7.005-9.677-16.116-6.057l.764 1.925c7.622-3.024 13.605 5.25 13.668 5.332z" class="cls-34" transform="translate(-518.838 -418.028)"/>
                </g>
                <g id="그룹_8359" transform="translate(73.833 58.861)">
                    <path id="패스_10499" d="M530.979 458.592c9.414-.863 9.748-8.132 11.8-14.747.727-2.369 1.195-4.752 2.341-6.326 3.66-5.033 6.915-5.344 10.481-5.519l-.351-2.052a12.523 12.523 0 0 0-11.953 6.6 39.136 39.136 0 0 0-2.5 6.691c-2.055 6.643-5.91 14.319-13.946 15.058z" class="cls-34" transform="translate(-526.852 -429.922)"/>
                </g>
                <g id="그룹_8360" transform="translate(74.584 40.594)">
                    <path id="패스_10500" d="M527.154 435.345l2.064-.178c-.694-7.92 12.428-9.638 12.561-9.655l-.255-2.044c-.624.071-15.233 1.993-14.37 11.877z" class="cls-34" transform="translate(-527.117 -423.468)"/>
                </g>
                <g id="그룹_8361" transform="translate(77.566 28.822)">
                    <path id="패스_10501" d="M529.737 435.776l1.763-1.087c-3.77-6.125 2.233-14.042 2.29-14.121l-1.633-1.26c-.289.366-6.932 9.129-2.42 16.468z" class="cls-34" transform="translate(-528.171 -419.309)"/>
                </g>
                <g id="그룹_8362" transform="translate(6.031 32.193)">
                    <path id="패스_10502" d="M515.119 442.246l1.871-.9c-1.913-4.019-3.02-4.786-6.7-7.342-.733-.509-1.568-1.1-2.553-1.792-5.1-3.665-1.577-10.693-1.543-10.767l-1.84-.948c-1.54 3-3.057 9.638 2.182 13.394.988.7 1.837 1.3 2.576 1.809 3.588 2.5 4.331 3.017 6.007 6.546z" class="cls-34" transform="translate(-502.897 -420.5)"/>
                </g>
                <g id="그룹_8363" transform="translate(.001 40.919)">
                    <path id="패스_10503" d="M506.043 430.076a10.966 10.966 0 0 0 5.584-1.814l-1.18-1.707c-.023.025-2.845 1.939-5.474 1.333-1.3-.3-3.365-2.839-4.206-4.305l.19 3.247c1.141 2 1.673 2.652 3.572 3.079a6.779 6.779 0 0 0 1.514.167z" class="cls-34" transform="translate(-500.767 -423.583)"/>
                </g>
                <g id="그룹_8364" transform="translate(37.876 57.016)">
                    <path id="패스_10504" d="M523.213 449.038c.232 0 .368-.161.577-.371.716-.756-.043-1.486-.359-1.8l-.04.04c-.45-.394-1.656-1.48-4.9-4.461a5.807 5.807 0 0 1-2.256-4.73c.294-3.7 4.764-6.691 4.815-6.719l-1.141-1.727c-.224.142-5.367 3.589-5.743 8.276-.184 2.312.8 4.469 2.915 6.422 2.584 2.375 4.048 3.716 4.936 4.415.057.054.167.159.221.218l.028-.031a1.81 1.81 0 0 0 .947.468z" class="cls-34" transform="translate(-514.148 -429.27)"/>
                </g>
                <g id="그룹_8365" transform="translate(28.192 64.614)">
                    <path id="패스_10505" d="M512.479 437.294a6.42 6.42 0 0 1 3.983-3.15 6.569 6.569 0 0 1 4.506.852l1.132-1.732a8.656 8.656 0 0 0-6.074-1.146 8.434 8.434 0 0 0-5.3 4.073z" class="cls-34" transform="translate(-510.727 -431.954)"/>
                </g>
                <g id="그룹_8366" transform="translate(40.499 38.185)">
                    <path id="패스_10506" d="M516.589 429.886c.045-.051 4.928-5.2 9.609-5.2h.051a5.738 5.738 0 0 1 4.348 2.055l1.525-1.39a7.775 7.775 0 0 0-5.862-2.734c-5.531.014-10.962 5.61-11.186 5.85z" class="cls-34" transform="translate(-515.075 -422.617)"/>
                </g>
                <g id="그룹_8367" transform="translate(22.492 25.717)">
                    <path id="패스_10507" d="M510.326 433.414c5.675-5.412.413-14.8.184-15.2l-1.8 1.03c.045.077 4.69 8.384.187 12.678z" class="cls-34" transform="translate(-508.713 -418.212)"/>
                </g>
                <g id="그룹_8368" transform="translate(75.155 78.212)">
                    <path id="패스_10508" fill="#53d5ea" d="M536.66 440.644l1.458-1.469a9.423 9.423 0 0 0-10.8-1.291l.928 1.851a7.3 7.3 0 0 1 8.414.909z" transform="translate(-527.319 -436.758)"/>
                </g>
                <g id="그룹_8369" transform="translate(58.065 64.888)">
                    <path id="패스_10509" d="M523.107 437.052c1.837-3.456 7.441-2.9 7.5-2.89l.226-2.058c-.283-.031-7.062-.725-9.55 3.98z" class="cls-34" transform="translate(-521.281 -432.051)"/>
                </g>
                <path id="패스_10510" fill="#d4fcf4" d="M603.764 461.632c-.676 11.1-17.045 32.165-32.236 22.768a184.153 184.153 0 0 0-30.19-15.18c-25.177 2.072-24.837-11.042-24.837-11.042-20.2-14.761-17.8-29.819-10.184-39.8-5.106 16.015 11.7 29.838 16.94 35.576 5.737 6.295 12.726 4.925 21.526 3.917s7.761 3.8 28.8 10.422c17.441 5.494 27.283-7.121 30.147-11.608a38.067 38.067 0 0 1 .034 4.947z" opacity="0.5" transform="translate(-500.766 -392.182)"/>
            </g>
            <path id="패스_10511" d="M490.513 421.191c-3.439 27.342 2.415 49.046 30.974 64.843a129.037 129.037 0 0 0 27.758 11.107v-31.973a129.32 129.32 0 0 1-27.758-11.1c-13.708-7.587-26.156-23.225-30.974-32.877z" class="cls-32" transform="translate(-489.463 -364.46)"/>
            <path id="패스_10512" d="M585.971 421.191c-4.679 9.547-17.736 23.634-31.115 31.223a121.3 121.3 0 0 1-20.5 9.1l.26 31.973a121.757 121.757 0 0 0 20.5-9.1c28.067-15.91 32.992-38.812 30.855-63.196z" class="cls-32" transform="translate(-407.585 -364.46)"/>
            <path id="패스_10513" fill="#6cf08d" d="M566.208 468.452v-32.024a189.819 189.819 0 0 1-53.513 3.447v31.953a189.858 189.858 0 0 0 53.513-3.376z" opacity="0.3" transform="translate(-447.242 -336.57)"/>
            <path id="패스_10514" d="M525.054 413.813s-21.854 5.95-31.888 18.749v-12.095s8.353-8.517 31.888-17.413z" class="cls-39" transform="translate(-482.991 -397.659)"/>
            <path id="패스_10515" d="M530.412 401.148v11.783s22.638.855 50.461 19.723v-14.826s-17.299-11.911-50.461-16.68z" class="cls-39" transform="translate(-414.814 -401.148)"/>
            <path id="패스_10516" d="M494.763 428.962a59.54 59.54 0 0 1 5.313-3.875 113.272 113.272 0 0 1 15.177-8.418c3.275-1.489 6.878-2.983 10.77-4.37a115.752 115.752 0 0 1 12.443-3.7 128.4 128.4 0 0 1 27.979-3.566 128.717 128.717 0 0 1 14.333.645c2.363.184 4.684.592 6.983.88 2.3.323 4.534.815 6.753 1.211a123.452 123.452 0 0 1 12.559 3.278c1.984.569 3.875 1.237 5.689 1.911s3.609 1.251 5.262 1.967c3.309 1.4 6.371 2.618 8.959 3.983 2.61 1.3 4.919 2.361 6.725 3.431l5.729 3.224s-2.148-1.044-5.907-2.879c-1.845-.977-4.2-1.925-6.855-3.1-2.638-1.223-5.737-2.287-9.054-3.606-1.659-.671-3.451-1.175-5.268-1.8s-3.714-1.226-5.7-1.732c-3.92-1.144-8.123-2.072-12.477-2.978-2.2-.365-4.413-.832-6.682-1.135-2.27-.255-4.56-.637-6.892-.8a144.442 144.442 0 0 0-28.242.388 131.144 131.144 0 0 0-13.5 2.366 136.974 136.974 0 0 0-23.153 7.4c-3.264 1.427-6.255 2.771-8.837 4.1-2.59 1.308-4.8 2.545-6.587 3.617-3.598 2.14-5.52 3.558-5.52 3.558z" class="cls-16" transform="translate(-480.067 -394.06)"/>
            <path id="패스_10517" d="M499.446 439.259s1.919 1.214 5.468 2.986a123.8 123.8 0 0 0 15.129 6.278c3.213 1.053 6.714 2.174 10.49 3.048 3.759.928 7.778 1.684 11.95 2.3a117.005 117.005 0 0 0 12.952 1.144 111.856 111.856 0 0 0 13.4-.456l3.357-.3 3.331-.467c2.222-.266 4.407-.742 6.578-1.161a113.342 113.342 0 0 0 12.548-3.385c3.991-1.373 7.829-2.782 11.361-4.373.889-.388 1.763-.764 2.627-1.141.846-.419 1.67-.838 2.488-1.245 1.625-.838 3.241-1.554 4.7-2.414 2.927-1.7 5.692-3.133 7.985-4.67 2.318-1.492 4.393-2.72 5.975-3.915 3.252-2.281 5.109-3.58 5.109-3.58l-4.877 3.9c-1.526 1.279-3.541 2.61-5.8 4.223-2.219 1.659-4.925 3.241-7.832 5.033-1.452.906-3.057 1.681-4.67 2.576-.812.436-1.639.883-2.474 1.333-.86.408-1.735.815-2.621 1.234a104.277 104.277 0 0 1-11.407 4.693 114.138 114.138 0 0 1-12.723 3.564c-2.2.45-4.416.959-6.674 1.248l-3.391.507-3.414.34a114.041 114.041 0 0 1-13.64.331 117.21 117.21 0 0 1-13.142-1.3 100.909 100.909 0 0 1-12.063-2.6c-3.793-1-7.291-2.239-10.5-3.4a108.15 108.15 0 0 1-14.933-7 55.286 55.286 0 0 1-5.287-3.331z" class="cls-16" transform="translate(-471.495 -352.174)"/>
            <path id="패스_10518" d="M608.566 434.608a28.385 28.385 0 0 1-1.86 4.048 47.667 47.667 0 0 1-2.743 4.336 29.976 29.976 0 0 1-1.9 2.533c-.719.846-1.4 1.812-2.276 2.669-.846.883-1.738 1.8-2.649 2.748-.931.94-2 1.789-3.037 2.731a73.644 73.644 0 0 1-7.011 5.372c-1.31.784-2.649 1.579-4 2.392a38.029 38.029 0 0 1-4.186 2.293 82.258 82.258 0 0 1-8.891 3.968c-1.525.569-3.062 1.129-4.582 1.693-1.537.524-3.119.886-4.656 1.336-1.546.425-3.08.855-4.594 1.265-1.506.447-3.054.64-4.543.957-3 .552-5.882 1.209-8.661 1.486s-5.4.543-7.821.8a53.511 53.511 0 0 1-6.623.354c-1.973.034-3.7.062-5.112.091-2.831.02-4.447.037-4.447.037s1.611-.153 4.427-.43c1.409-.122 3.116-.269 5.078-.444s4.172-.334 6.556-.73c2.4-.348 4.984-.722 7.727-1.121a41.744 41.744 0 0 0 4.166-.821c1.421-.3 2.867-.606 4.345-.911 1.463-.34 2.992-.549 4.472-1 1.486-.439 2.989-.872 4.506-1.322s3.057-.844 4.56-1.376c1.486-.575 2.986-1.146 4.478-1.718a81.206 81.206 0 0 0 8.777-3.77 35.677 35.677 0 0 0 4.13-2.191c1.33-.773 2.655-1.54 3.951-2.284q1.851-1.282 3.632-2.508c.592-.416 1.206-.792 1.766-1.217.549-.444 1.093-.877 1.622-1.311 1.061-.878 2.143-1.67 3.094-2.547q1.406-1.342 2.714-2.584c.9-.8 1.591-1.735 2.361-2.519a27.175 27.175 0 0 0 2.035-2.355 48.4 48.4 0 0 0 3-4.087c.736-1.2 1.336-2.137 1.67-2.813.364-.676.525-1.05.525-1.05z" class="cls-16" transform="translate(-435.75 -339.901)"/>
        </g>
    </g>
</svg>
