<svg xmlns="http://www.w3.org/2000/svg" width="40" height="40" viewBox="0 0 40 40">
    <g transform="translate(-1225 -1235)">
        <rect width="40" height="40" fill="#f4f4f4" rx="8" transform="translate(1225 1235)"/>
        <g>
            <g>
                <path fill="#1e005a" d="M24 50.368a10.059 10.059 0 0 1-2.835.8 5 5 0 0 0 2.165-2.789 9.685 9.685 0 0 1-3.12 1.222A4.874 4.874 0 0 0 16.615 48a4.983 4.983 0 0 0-4.915 5.048 5.324 5.324 0 0 0 .114 1.151A13.815 13.815 0 0 1 1.671 48.92 5.18 5.18 0 0 0 1 51.471a5.089 5.089 0 0 0 2.185 4.194 4.766 4.766 0 0 1-2.225-.622v.057a5.04 5.04 0 0 0 3.94 4.957 4.8 4.8 0 0 1-1.29.166 4.245 4.245 0 0 1-.931-.086 4.985 4.985 0 0 0 4.6 3.515 9.73 9.73 0 0 1-6.1 2.152A8.987 8.987 0 0 1 0 65.735 13.6 13.6 0 0 0 7.548 68c9.054 0 14-7.692 14-14.36 0-.223-.008-.438-.018-.652a9.958 9.958 0 0 0 2.47-2.62z" transform="translate(1233 1245) translate(0 -48)"/>
            </g>
        </g>
    </g>
</svg>
