<svg xmlns="http://www.w3.org/2000/svg" width="40" height="40" viewBox="0 0 40 40">
    <g transform="translate(-1331 -1235)">
        <rect width="40" height="40" fill="#f4f4f4" rx="8" transform="translate(1331 1235)"/>
        <g>
            <path fill="#1e005a" d="M23.065 47.376c-.866-1.037-2.466-1.459-5.52-1.459H6.456c-3.125 0-4.751.45-5.614 1.554C0 48.547 0 50.132 0 52.326v4.182c0 4.251 1 6.409 6.456 6.409h11.088c2.649 0 4.117-.373 5.066-1.288.974-.938 1.39-2.469 1.39-5.121v-4.182c0-2.314-.065-3.909-.935-4.95zm-7.656 7.618l-5.035 2.649a.77.77 0 0 1-.76-.024.78.78 0 0 1-.373-.667v-5.28a.78.78 0 0 1 .372-.666.77.77 0 0 1 .759-.026l5.035 2.632a.782.782 0 0 1 0 1.382z" transform="translate(1339 1247) translate(0 -45.917)"/>
        </g>
    </g>
</svg>
